<?xml version="1.0" encoding="UTF-8"?>
<!DOCTYPE svg PUBLIC "-//W3C//DTD SVG 1.1//EN" "http://www.w3.org/Graphics/SVG/1.1/DTD/svg11.dtd">
<!-- Creator: CorelDRAW -->
<svg xmlns="http://www.w3.org/2000/svg" xml:space="preserve" width="143.757mm" height="18.4319mm" version="1.1" style="shape-rendering:geometricPrecision; text-rendering:geometricPrecision; image-rendering:optimizeQuality; fill-rule:evenodd; clip-rule:evenodd"
viewBox="0 0 3308.19 424.16"
 xmlns:xlink="http://www.w3.org/1999/xlink"
 xmlns:xodm="http://www.corel.com/coreldraw/odm/2003">
 <defs>
  <style type="text/css">
   <![CDATA[
    .fil0 {fill:#DAB96B}
   ]]>
  </style>
 </defs>
 <g id="Layer_x0020_1">
  <metadata id="CorelCorpID_0Corel-Layer"/>
  <g>
   <path class="fil0" d="M1054.64 279.91c-62.81,-15.95 -77.86,-74.73 -35.6,-125.23 27.36,-32.69 87.15,-53.54 148.89,-57.33 111.4,-6.85 237.43,36.05 331.38,68.64l16.76 11.03 9.81 -3.93 17.53 9.95 18.23 -1.13c18.96,9.35 9.94,9.87 36.15,9.58 2.57,-0.03 4.54,-0.73 7.07,-0.95 2.43,-0.21 4.34,-1.06 6.74,-1.37 2.33,-0.3 4.22,-1.06 6.54,-1.36 2.32,-0.31 4.21,-0.85 6.57,-1.11 24.26,-2.65 45.18,-0.71 71.66,-4.26 -21.8,11.53 -46.71,6.64 -75.7,6.46 4.85,2.45 -2.51,3.38 18.65,7.33l66.92 -3.82c12.63,-1.46 29.58,-1.49 42.19,-5.03 30.39,-8.52 18.24,-7.63 27.36,-16.96 63.42,-1.75 204.35,-80.64 358.74,-73.4 204.78,9.6 220.01,177.38 113.04,180.52 -20.34,-46.98 19.61,-47.89 -45.52,-50.71 -26.85,87.1 69.28,97.97 111.41,53.19 43.52,-46.26 21.49,-120.02 -12.43,-151.21 -98.81,-90.88 -282.18,-31.05 -353.32,-27.9 2.7,-1.94 0.71,-2.31 14.99,-9.14l42.98 -13.88c16.68,-4.83 41.72,-14.29 57.17,-16.88 48.87,-8.2 187.61,5.85 239.46,50.21 13.96,11.95 20.93,21.45 31.27,42.2 18.11,36.34 1.59,32.25 36.15,35.9 27.01,-45.07 -50.29,-99.74 -87.28,-115.13 -84.28,-35.08 -126.51,-0.22 -188.96,-14.13 17.53,-17.12 45.72,-19.18 73.21,-24.13 96.88,-17.44 139.49,-12.3 215.36,-14.34l-81.83 3.53c19,13.54 121.16,21.28 164.79,28.14 25.75,3.35 37.16,7.77 51.09,15.21 27.17,14.52 16.53,10.2 35.37,27.24l42.34 43.91c17.75,23.92 23.26,63.99 7.93,95.67 -17.14,35.43 -39.5,21.63 -61.72,22.03l-19.33 3.38c-8.61,73.55 169.36,45.65 86.14,-136.88 6.17,-5.2 -10.88,-19.67 14.08,3.23 40.06,75 51.53,187.64 -11.44,246 -55.29,51.23 -202.23,56.49 -190.4,-53.08 4.2,-8.55 67.74,-34.04 40.12,-58.51 -55.92,-21.96 -94.07,102.72 -5.91,145.45 211.01,102.28 357.87,-279.68 50.75,-380.36l-26.05 -12.86c27.05,0.05 4.72,-2.77 18.42,0.33l48.98 12.09c34.83,12.3 81.36,43.85 104.88,61.66 63.79,48.31 24.48,16.76 69.29,65.46 1.01,2.43 2.24,5.49 3.13,7.24 0.84,1.64 2.5,4.98 3.35,6.58l7.52 10.36 0.87 3.64 8.36 11.2c19.1,62.34 35.31,110.68 -5.09,159.81 -52.84,0.37 -16.59,-3.66 -40.4,-12.32 -35.92,-13.07 -20.28,-2.29 -31.04,4.59 18.25,54.91 89.57,29.81 105.02,-20.38 5.83,-18.94 7.32,-33.05 6.71,-52.86 -1.18,-37.63 -15.78,-62.96 -24.64,-92.25 -1.65,-13.48 -2.9,-10.01 7.98,-2.32 58.5,91.05 4.86,113.84 38.68,155.91 4.69,-7.01 15.46,6.57 11.71,-53.25 -2.09,-33.4 -19.22,-83.37 -44.51,-97.24 10.42,-23.27 -4.7,-13.6 25.21,0.66 32.04,15.27 19.23,18.71 23.77,25.15 4.54,6.44 16.12,15.77 24.62,22.35 15.24,11.8 -4.52,3.41 28.19,16.6 159.54,115.53 440.71,84.56 439.2,-105.37 -1.06,-133.21 -129.53,-154.77 -187.38,-109.59 -78.61,61.38 -24.05,156.74 41.3,132.36 7.12,-2.65 21.07,-14.68 23.31,-19.97 16.26,-38.3 -1.86,-27.03 -3.86,-30.56 -18.3,8.96 -6.79,3.65 -19.18,17.18 -4.85,5.29 2.57,3.3 -13.3,16.68 -86.15,-7.93 -42.25,-128.9 46.87,-117.48 62.29,7.98 109.44,98.89 69.53,170.86 -73.03,131.69 -281.26,98.38 -398.34,37.78 -20,-15.88 -27.09,-18.59 -53.5,-36.17l17.92 -3.6c144.94,23.99 186.33,-46.66 154.14,-112.77 -52.66,-108.16 -209.3,-11.09 -120.76,33.08 34.47,-18.2 5.06,3.34 21.98,-30.83 28.74,-58.05 96.76,7.12 74.66,61.22 -33.06,49.13 -47.99,36.83 -115.57,43.52 -28.82,-27.53 -56.99,-12.31 -96.44,-49.46 -1.62,2.17 -6.3,5.66 -7.15,6.39l-8.37 6.48c-13.89,-28.75 -64.13,-69.61 -84.78,-83.26 -19.89,-13.15 -34.43,-21.99 -51,-30.67 -20.55,-10.76 -35.57,-16.74 -54.58,-22 -23.46,-16.02 -29.41,-13.96 -58.85,-18.08 -17.64,-2.47 -37.89,-3.3 -61.33,-1.28 -42.12,3.62 -101.24,-5.37 -136.77,10.5 -102.11,-7.81 -355.84,71.32 -473.26,117.57 -34.55,13.61 -28.22,16.85 -56.64,16.19 28.77,-25.9 34.05,-87.98 1.76,-115.55 -39.47,-33.71 -77.23,-17.19 -98.03,18.41l-11.29 -10.63c-1.72,-1.5 -3.54,-3.3 -5.42,-4.86 -1.77,-1.47 -3.4,-3.04 -5.23,-4.42 -1.72,-1.3 -3.39,-2.73 -5.14,-3.88 -47.32,-31.27 -122.19,5.69 -98.55,97.2l0.71 16.37c-44.09,-1.15 -288.81,-93.52 -374.01,-111.12 -179.35,-37.05 -486.97,-48.28 -527.82,173.27 -38.33,207.93 162.59,261.98 242.09,192.77 49.04,-42.69 35.16,-148.43 -26.78,-132.73 -1.96,4.24 -14.92,-10.3 -2.85,24.35 8.28,23.78 29.88,10.82 41.3,33.27 26.48,99.43 -134.08,125 -204.49,32.64 -68.24,-89.51 -13.75,-219.34 45.65,-264.44l21.6 -16.56 0.75 -0.26 10.68 -10.45c39.36,-12.91 65.57,-28.48 117.05,-33.44l-111.5 39.41 -11.96 9.29 -1.18 0.58 -23.51 15.19c-135,178.29 23.63,242.92 55.53,188.52 24.11,-41.1 -39.7,-15.43 -68.91,-20.65 -21.67,-40.85 -29.53,-73.74 -2.78,-120.14 1.57,-1.52 3.88,-6.11 4.59,-4.69l59.31 -57.42c95.05,-38.32 116.29,-40.29 232.18,-44.49l-129.82 -1.33c24.95,-13.66 62.88,-9.59 92.93,-8.86 93.74,2.27 156.42,9.19 248.76,33.87 52.15,13.94 99.87,30.22 143.6,43.81 29.33,9.12 44,14.38 73.29,24.5l60.35 26.89c-61.48,-9.26 -255.74,-113.42 -428.04,-56.6 -56.76,18.72 -124.97,72.21 -95.01,157.8 24.66,70.47 139.35,79.59 134.4,-10.22 -11.28,-15.51 -1.89,-9.79 -24.01,-20.78 -41.02,29.38 -10.47,22.26 -32.41,59.89zm459.46 -129.87l0.8 8.81c-20.1,-9 -24.41,-2.42 -0.8,-8.81zm42.43 25.15l-1.61 -10.89 17.56 1.05c2.83,14.49 4.17,8.54 -14.29,8.21l-1.66 1.63zm-1125.61 81.53c27.07,-11.04 38.5,-26.74 56.26,-41.3 2.98,-2.44 17.02,-8.16 16.13,-11.58l-8.97 -4.83c-24.47,23.73 -37.6,22.12 -66.15,46.76 -144.68,64.38 -361.9,74.12 -397.02,-72.81 -19.51,-81.63 46.49,-167.09 123.53,-138.51 75.36,27.95 52.42,121.37 8.58,112.31 -38.16,-7.88 2.84,-6.93 -34.19,-33.73 -1.79,2.68 -23.1,-11.69 -6.4,32.85 3.93,10.48 9.98,13.33 18.18,17.05 109.45,49.75 126.78,-181.07 -43.46,-151.57 -71.21,12.34 -118.2,100.76 -88.23,184.52 24.6,68.78 89.57,108.63 184.57,117.77 112.13,10.79 157.7,-25.53 237.17,-56.93zm2117.45 -179.77l5.87 -0.35c-1.65,0.15 -3.59,0.29 -5.87,0.35zm14.37 -0.85l9.43 -0.56 26.94 23.36c12.49,9.11 16.38,2.84 0.43,15.1 -12.75,-24.81 -12.03,-20.7 -37.15,-26.41 0.5,-7.77 1.47,-10.65 0.35,-11.48zm-1994.65 87.89c-11.21,-4.74 -11.07,-0.64 0.31,-3.05l-0.31 3.05zm24.07 -33.87c-15.08,0 -12.28,-3.77 -9.07,10.77 -9.16,11.55 -11.55,-14.56 -8.87,10.31l-4.94 -15.48c-15.21,9.87 -25.55,17.6 -42.53,32.13 -117.19,46.64 -208.83,17.39 -179,-67.67 11.59,-33.03 26.46,-34.37 70.74,-33.23l8.4 51.39c75.38,-6.2 34.18,-74.85 -15.1,-80.32 -52.58,-5.83 -89.42,27.03 -95.91,71.78 -14.64,100.93 99.87,123.94 207.73,64.34 16.36,-0.64 13.94,-5.05 10.82,10.06 -24.49,29.94 -61.53,114.27 -23.77,148.32 29.43,-43.18 -19.58,-43.94 31.42,-149.71 11.78,-3.73 9.57,-6.22 7.99,5.81 -11.33,46.36 -32.68,103.94 -6.26,155.41 15.08,29.38 91.58,57.45 98.07,-9.51 -50.51,0.51 -19.38,5.2 -58.16,19.72 -75.8,-49.83 -25.2,-147.43 8.18,-202.75 12.96,0 9.98,3.14 8.37,-9.93l-8.1 -11.45zm-33.99 48.31c-1.03,-1.1 -2.39,-3.14 -2.9,-3.47 -0.48,-0.31 -2.58,-2.49 -3.16,-2.78 -0.52,-0.25 -2.89,-1.38 -3.43,-1.56 -9.97,-3.26 0.48,-3.59 -11.94,3.13l21.02 0.4 0.41 4.28zm48.3 -46.83l7.63 -8.52 -7.63 8.52zm25.56 -23.01c12.17,1.06 8.98,3.75 8.98,-8.72 11.34,-7.58 18,-12.46 27.98,-19.85l81.45 -53.64c-23.3,6.79 -34.18,11.81 -54.91,23.91l-40.43 28.7 -11.37 8.61 -11.69 20.98zm0.87 -15.58c-13.48,-1.86 -10.27,-4.92 -10.27,8.45l-30.48 28.66 40.75 -37.11zm2112.67 76.12l-0.97 -1.84 7.17 -10 -6.2 11.84zm-1154.71 6.48l20.23 -1.22c-6.2,3.55 5.38,2.12 -13.44,4.54 -0.93,0.12 -19.36,-0.87 -21.85,-3.08l15.06 -0.24zm43.89 -11.71c-168.26,-3.97 -41.3,-228.07 4.74,-103.72 -9.89,20.21 -36.35,26.9 -36.44,26.65 -0.49,-1.28 -2.94,0.94 -4.02,1.96 28.31,10.19 24.41,6.29 48.67,-6.77l13.05 -9.55c11.69,18.01 17.12,36.8 47.75,9.3l-36.57 -4.53c-7.06,-75.94 75.2,-64.93 85.09,-5.77 10.62,63.56 -26.11,90.73 -82.46,91.99l-39.81 0.43zm63.12 9.66l19.75 1.32 16.08 3.3c-3.66,0.27 -18.62,1.4 -20.97,1.19 -20.69,-1.82 -5.18,0.24 -14.86,-5.82zm38.62 -9.18l12.53 2.27c5.14,0.94 23.01,4.19 1.05,2.14 -18.59,-1.74 -3.58,6.21 -13.57,-4.4zm26.84 -6.49c48.1,-9.76 124.93,-51.75 184.36,-56.98l-171.89 64.42c-16.5,0.52 -15.34,5.82 -12.48,-7.44zm-822.43 32.86c51.67,-17.91 7.02,-54.18 90.91,-96.83 53.63,-27.27 99.04,-27.48 166.75,-29.23 -67.09,-4.16 -100.07,-18.85 -171.35,8.68 -40.5,15.64 -120.86,69.06 -86.3,117.39zm1483.1 -170.97c24.42,1.09 27.84,-6.63 25.44,9.06 -3.02,-0.15 -7.15,-0.45 -12.85,-1.08l12.54 3.06 0.31 -1.98 -25.44 -9.06zm33.87 9.5l6.72 -1.18 15.07 10.79c37.41,3.13 36.62,6.7 53.54,21.09 -32.72,-3.85 -27.92,-10.81 -64.47,-18.16 -10.49,-9.28 -9.79,-11.82 -10.87,-12.54z"/>
  </g>
 </g>
</svg>
